# xmcd
# 
# Track frame offsets:
#     150
#     19110
#     40302
#     53365
#     66600
#     93145
#     103852
#     119897
#     131282
#     152855
#     166162
#     184835
#     210230
#     221155
#     232245
#     273465
# 
# Disc length: 3971
# 
# Revision: 4
# Processed by: cddbd v1.5.2PL0 Copyright (c) Steve Scherf et al.
# Submitted via: BonkEnc v1.0.6
# 
DISCID=e90f8110
DTITLE=Various Artist - Blues
DYEAR=0
DGENRE=Blues
TTITLE0=King, B. B. - Into The Night
TTITLE1=Guy, Buddy - Mustang Sally
TTITLE2=James, Elmore - Dust My Broom
TTITLE3=Waters, Muddy - Mannish Boy
TTITLE4=Howlin' Wolf - The Red Rooster
TTITLE5=James, Etta - Tell Mama
TTITLE6=The Jeff Healy Band - River Of No Return
TTITLE7=Hooker, John Lee - Boom Boom
TTITLE8=John Mayall's Bluesbreakers - Fascinating Lover
TTITLE9=Smith, Bessie - Baby Won't You Please Come Home
TTITLE10=Leadbelly - C. C. Rider
TTITLE11=Clapton, Eric - Smokestack Lightning
TTITLE12=Beck, Jeff - Shapes Of Things
TTITLE13=Winter, Johnny - Ganster Of Love
TTITLE14=King, Albert - I Got The Blues
TTITLE15=King, B. B. - The Thrill Is Gone
EXTD=Media-Markt-Edition
EXTT0=
EXTT1=
EXTT2=
EXTT3=
EXTT4=
EXTT5=
EXTT6=
EXTT7=
EXTT8=
EXTT9=
EXTT10=
EXTT11=
EXTT12=
EXTT13=
EXTT14=
EXTT15=
PLAYORDER=
